# Blender 4.3.2
# www.blender.org
mtllib Bush.mtl
o Bush
v -4.931217 -0.241989 -0.048440
v -4.121553 0.451625 0.470966
v -5.242918 0.432481 0.849546
v -6.214797 0.388023 0.316626
v -5.468897 0.223560 -1.006206
v -4.221968 0.530559 -0.641498
v -4.583369 1.422765 0.792424
v -5.749241 1.525570 0.412441
v -5.635514 1.284303 -0.806941
v -4.692582 1.348789 -0.915685
v -4.107907 1.423333 0.000273
v -4.977612 1.983083 -0.046262
v -5.058549 -0.087370 0.511192
v -4.398142 -0.058281 0.246761
v -4.566952 0.334844 0.801664
v -4.048412 0.391367 -0.125403
v -4.495186 0.020902 -0.444684
v -5.696928 -0.008650 0.221345
v -5.838523 0.344973 0.632012
v -5.330687 -0.124072 -0.529305
v -6.059379 0.141025 -0.421934
v -4.764575 0.414230 -0.875357
v -3.969085 0.990670 0.286008
v -4.025623 0.990556 -0.358819
v -4.913431 0.932870 1.016390
v -4.203844 0.972201 0.823926
v -6.181880 0.865285 0.460024
v -5.740689 0.921451 0.803020
v -5.751554 0.543435 -1.108205
v -6.252927 0.655283 -0.240304
v -4.388120 0.989756 -0.860704
v -5.062616 0.834503 -1.132514
v -4.194777 1.507023 0.479637
v -5.210005 1.559109 0.730965
v -5.784519 1.653203 -0.197963
v -5.174020 1.346328 -1.046835
v -4.350160 1.485738 -0.472552
v -4.809032 1.828851 0.374726
v -4.515975 1.722574 -0.005428
v -5.319036 1.980775 0.175398
v -5.280246 1.891863 -0.348065
v -4.811682 1.751502 -0.479429
vn 0.0707 -0.9971 -0.0292
vn 0.8197 -0.3907 0.4189
vn -0.1564 -0.3878 0.9084
vn -0.8433 -0.4102 0.3472
vn -0.0663 -0.6264 -0.7767
vn 0.7095 -0.3136 -0.6311
vn 0.2413 0.5449 0.8030
vn -0.6413 0.6096 0.4660
vn -0.6089 0.5024 -0.6139
vn 0.3820 0.4926 -0.7819
vn 0.8190 0.5626 -0.1131
vn 0.2280 0.9699 -0.0856
vn -0.0479 -0.8291 0.5570
vn 0.5430 -0.8062 0.2351
vn 0.3133 -0.4890 0.8140
vn 0.9040 -0.4059 -0.1338
vn 0.4685 -0.7474 -0.4710
vn -0.4001 -0.8779 0.2630
vn -0.4586 -0.4779 0.7492
vn -0.0919 -0.9177 -0.3865
vn -0.7132 -0.6447 -0.2751
vn 0.3431 -0.4633 -0.8171
vn 0.9834 0.0750 0.1651
vn 0.9260 0.1435 -0.3492
vn 0.0037 0.0487 0.9988
vn 0.6414 0.0525 0.7654
vn -0.8630 0.2095 0.4597
vn -0.4560 0.1292 0.8806
vn -0.5165 -0.1114 -0.8490
vn -0.9674 0.0860 -0.2383
vn 0.6077 0.0989 -0.7879
vn 0.1835 -0.0524 -0.9816
vn 0.6787 0.6346 0.3697
vn -0.1840 0.5937 0.7834
vn -0.7209 0.6637 -0.1994
vn -0.0832 0.5141 -0.8537
vn 0.6377 0.6358 -0.4350
vn 0.2557 0.8728 0.4157
vn 0.5167 0.8525 -0.0790
vn -0.2729 0.9301 0.2457
vn -0.2137 0.8773 -0.4298
vn 0.3026 0.8290 -0.4703
vt 0.181819 0.000000
vt 0.227273 0.078731
vt 0.136365 0.078731
vt 0.272728 0.157461
vt 0.318182 0.078731
vt 0.363637 0.157461
vt 0.909091 0.000000
vt 0.954545 0.078731
vt 0.863636 0.078731
vt 0.727273 0.000000
vt 0.772727 0.078731
vt 0.681818 0.078731
vt 0.545455 0.000000
vt 0.590909 0.078731
vt 0.500000 0.078731
vt 0.318182 0.236191
vt 0.090910 0.157461
vt 0.181819 0.157461
vt 0.136365 0.236191
vt 0.818182 0.157461
vt 0.909091 0.157461
vt 0.863636 0.236191
vt 0.636364 0.157461
vt 0.727273 0.157461
vt 0.681818 0.236191
vt 0.454546 0.157461
vt 0.545455 0.157461
vt 0.500000 0.236191
vt 0.227273 0.236191
vt 0.045455 0.236191
vt 0.772727 0.236191
vt 0.590909 0.236191
vt 0.409092 0.236191
vt 0.181819 0.314921
vt 0.272728 0.314921
vt 0.227273 0.393651
vt 0.000000 0.314921
vt 0.090910 0.314921
vt 0.045455 0.393651
vt 0.727273 0.314921
vt 0.818182 0.314921
vt 0.772727 0.393651
vt 0.545455 0.314921
vt 0.636364 0.314921
vt 0.590909 0.393651
vt 0.363637 0.314921
vt 0.454546 0.314921
vt 0.409092 0.393651
vt 0.500000 0.393651
vt 0.454546 0.472382
vt 0.681818 0.393651
vt 0.636364 0.472382
vt 0.863636 0.393651
vt 0.818182 0.472382
vt 0.909091 0.314921
vt 0.136365 0.393651
vt 0.090910 0.472382
vt 0.318182 0.393651
vt 0.272728 0.472382
vt 0.954545 0.236191
vt 1.000000 0.157461
vt 0.409092 0.078731
vt 0.363637 0.000000
s 1
usemtl Grass
f 1/1/1 14/2/14 13/3/13
f 2/4/2 14/5/14 16/6/16
f 1/7/1 13/8/13 18/9/18
f 1/10/1 18/11/18 20/12/20
f 1/13/1 20/14/20 17/15/17
f 2/4/2 16/6/16 23/16/23
f 3/17/3 15/18/15 25/19/25
f 4/20/4 19/21/19 27/22/27
f 5/23/5 21/24/21 29/25/29
f 6/26/6 22/27/22 31/28/31
f 2/4/2 23/16/23 26/29/26
f 3/17/3 25/19/25 28/30/28
f 4/20/4 27/22/27 30/31/30
f 5/23/5 29/25/29 32/32/32
f 6/26/6 31/28/31 24/33/24
f 7/34/7 33/35/33 38/36/38
f 8/37/8 34/38/34 40/39/40
f 9/40/9 35/41/35 41/42/41
f 10/43/10 36/44/36 42/45/42
f 11/46/11 37/47/37 39/48/39
f 39/48/39 42/49/42 12/50/12
f 39/48/39 37/47/37 42/49/42
f 37/47/37 10/43/10 42/49/42
f 42/45/42 41/51/41 12/52/12
f 42/45/42 36/44/36 41/51/41
f 36/44/36 9/40/9 41/51/41
f 41/42/41 40/53/40 12/54/12
f 41/42/41 35/41/35 40/53/40
f 35/41/35 8/55/8 40/53/40
f 40/39/40 38/56/38 12/57/12
f 40/39/40 34/38/34 38/56/38
f 34/38/34 7/34/7 38/56/38
f 38/36/38 39/58/39 12/59/12
f 38/36/38 33/35/33 39/58/39
f 33/35/33 11/46/11 39/58/39
f 24/33/24 37/47/37 11/46/11
f 24/33/24 31/28/31 37/47/37
f 31/28/31 10/43/10 37/47/37
f 32/32/32 36/44/36 10/43/10
f 32/32/32 29/25/29 36/44/36
f 29/25/29 9/40/9 36/44/36
f 30/31/30 35/41/35 9/40/9
f 30/31/30 27/22/27 35/41/35
f 27/22/27 8/55/8 35/41/35
f 28/30/28 34/38/34 8/37/8
f 28/30/28 25/19/25 34/38/34
f 25/19/25 7/34/7 34/38/34
f 26/29/26 33/35/33 7/34/7
f 26/29/26 23/16/23 33/35/33
f 23/16/23 11/46/11 33/35/33
f 31/28/31 32/32/32 10/43/10
f 31/28/31 22/27/22 32/32/32
f 22/27/22 5/23/5 32/32/32
f 29/25/29 30/31/30 9/40/9
f 29/25/29 21/24/21 30/31/30
f 21/24/21 4/20/4 30/31/30
f 27/22/27 28/60/28 8/55/8
f 27/22/27 19/21/19 28/60/28
f 19/21/19 3/61/3 28/60/28
f 25/19/25 26/29/26 7/34/7
f 25/19/25 15/18/15 26/29/26
f 15/18/15 2/4/2 26/29/26
f 23/16/23 24/33/24 11/46/11
f 23/16/23 16/6/16 24/33/24
f 16/6/16 6/26/6 24/33/24
f 17/15/17 22/27/22 6/26/6
f 17/15/17 20/14/20 22/27/22
f 20/14/20 5/23/5 22/27/22
f 20/12/20 21/24/21 5/23/5
f 20/12/20 18/11/18 21/24/21
f 18/11/18 4/20/4 21/24/21
f 18/9/18 19/21/19 4/20/4
f 18/9/18 13/8/13 19/21/19
f 13/8/13 3/61/3 19/21/19
f 16/6/16 17/62/17 6/26/6
f 16/6/16 14/5/14 17/62/17
f 14/5/14 1/63/1 17/62/17
f 13/3/13 15/18/15 3/17/3
f 13/3/13 14/2/14 15/18/15
f 14/2/14 2/4/2 15/18/15
