# Blender 4.3.2
# www.blender.org
mtllib Rock.mtl
o Rock
v 23.162016 0.368659 0.532242
v 22.347351 0.302771 0.850640
v 23.259138 1.087650 0.556578
v 22.488680 1.029196 -0.677793
v 21.713768 1.583901 0.664553
v 22.000742 1.676132 -0.623585
v 22.764542 1.982048 -0.861207
v 22.664099 1.191049 0.905312
v 23.070736 1.194321 0.726680
v 23.432192 1.885094 0.518884
v 22.518612 1.744262 0.726678
v 23.300886 1.133162 -0.143893
v 21.912991 0.302771 0.252807
v 21.780079 0.731176 0.156242
v 21.780079 0.731176 -0.156242
v 22.081799 0.401643 -0.173834
v 22.558464 2.425615 -0.291669
v 22.360226 2.269111 -0.083728
v 22.308207 2.209769 0.335631
v 22.570204 2.110006 0.489915
v 22.948421 2.198282 0.333405
v 22.231712 -0.089962 -0.059326
v 22.428469 -0.117466 0.062654
v 22.460878 -0.102643 0.286783
v 22.253124 -0.017242 0.465294
v 22.005299 0.127755 0.240035
v 22.064888 0.014773 0.001701
v 23.003323 0.525410 -0.089088
v 22.637457 0.369130 -0.185271
v 23.068695 1.524224 -0.354836
v 22.657248 2.405243 0.144431
v 22.786163 2.355964 -0.016496
vn 0.7979 -0.5238 0.2984
vn -0.1912 -0.3547 0.9152
vn 0.9096 -0.2208 0.3521
vn 0.0848 -0.3385 -0.9371
vn -0.8116 0.2144 0.5434
vn -0.7102 0.1653 -0.6843
vn 0.3265 0.2487 -0.9119
vn 0.1237 0.0794 0.9891
vn 0.4770 -0.0644 0.8765
vn 0.8768 0.2751 0.3944
vn -0.0602 0.3915 0.9182
vn 0.8842 -0.0928 -0.4578
vn -0.9108 -0.3747 0.1732
vn -0.9761 -0.2156 0.0257
vn -0.8713 -0.2165 -0.4405
vn -0.6394 -0.3651 -0.6767
vn -0.0661 0.9273 -0.3684
vn -0.6442 0.7524 -0.1378
vn -0.4873 0.7760 0.4004
vn 0.0194 0.6257 0.7799
vn 0.4475 0.7710 0.4532
vn -0.2354 -0.7540 -0.6133
vn 0.2484 -0.8925 -0.3766
vn 0.2396 -0.9624 0.1278
vn -0.3822 -0.7611 0.5242
vn -0.8623 -0.4842 0.1483
vn -0.7583 -0.5368 -0.3701
vn 0.7321 -0.4908 -0.4724
vn 0.4600 -0.5797 -0.6725
vn 0.7809 0.0020 -0.6246
vn 0.0344 0.9493 0.3124
vn 0.5636 0.8179 -0.1160
vt 0.863271 0.141964
vt 1.000000 0.157461
vt 0.872218 0.157461
vt 0.083359 0.070649
vt 0.123690 0.047481
vt 0.272728 0.157461
vt 0.090910 0.157461
vt 0.845200 0.204257
vt 0.909091 0.314921
vt 0.791164 0.204257
vt 0.845200 0.204257
vt 0.727273 0.314921
vt 0.342464 0.001696
vt 0.382260 -0.003998
vt 0.415989 0.071340
vt 0.356525 0.157461
vt 0.454546 0.157461
vt 0.357161 0.232865
vt 0.261772 0.237542
vt 0.251185 0.314921
vt 0.216502 0.254849
vt 0.112452 0.314921
vt 0.235212 0.342587
vt 0.157712 0.341052
vt 0.545455 0.314921
vt 0.670528 0.438747
vt 0.603330 0.441211
vt 0.764146 0.157461
vt 0.791164 0.204257
vt 0.421036 0.251359
vt 0.147136 0.254848
vt 0.909128 0.395557
vt 0.840807 0.405836
vt 0.000000 0.314921
vt 0.127539 0.341052
vt 0.081459 0.348179
vt 0.112452 0.314921
vt 0.609033 0.043461
vt 0.645630 0.050922
vt 0.536948 0.096654
vt 0.778869 0.131960
vt 0.845377 0.141964
vt 0.391870 0.368919
vt 0.267016 0.355756
vt 0.336581 0.361817
vt 0.275603 0.353984
vt 0.751396 0.122686
vt 0.778869 0.131960
vt 0.764146 0.157461
vt 0.906267 0.129125
vt 0.000000 0.000000
vt 0.317374 0.356397
s 1
usemtl Rock
f 26/1/26 2/2/2 13/3/13
f 25/4/25 24/5/24 1/6/1 2/7/2
f 14/8/14 13/3/13 2/2/2 5/9/5
f 15/10/15 14/11/14 5/9/5 6/12/6
f 1/6/1 24/13/24 23/14/23 29/15/29 28/16/28
f 1/6/1 28/16/28 4/17/4 12/18/12 3/19/3
f 1/6/1 3/19/3 10/20/10 9/21/9
f 11/22/11 21/23/21 20/24/20
f 7/25/7 6/12/6 18/26/18 17/27/17
f 4/17/4 16/28/16 15/29/15 6/12/6
f 4/17/4 6/12/6 7/25/7
f 4/17/4 30/30/30 12/18/12
f 2/7/2 1/6/1 9/21/9 8/31/8
f 6/12/6 5/9/5 19/32/19 18/33/18
f 8/31/8 9/21/9 10/20/10
f 5/34/5 11/22/11 20/35/20 19/36/19
f 2/7/2 8/31/8 11/37/11 5/34/5
f 23/38/23 22/39/22 4/17/4 29/40/29
f 27/41/27 26/42/26 13/3/13 16/28/16
f 17/43/17 18/26/18 31/44/31
f 10/20/10 7/25/7 17/43/17 32/45/32 21/46/21
f 22/47/22 23/38/23 24/13/24 27/41/27
f 22/47/22 27/48/27 16/49/16 4/17/4
f 10/20/10 21/23/21 11/22/11 8/31/8
f 2/2/2 26/1/26 25/50/25
f 16/28/16 13/3/13 14/8/14 15/10/15
f 27/41/27 25/4/25 26/1/26
f 27/41/27 24/13/24 25/4/25
f 3/19/3 12/18/12 10/20/10
f 28/16/28 29/15/29 4/17/4
f 12/18/12 30/30/30 10/20/10
f 30/30/30 4/17/4 7/25/7
f 10/20/10 30/30/30 7/25/7
f 21/23/21 31/51/31 20/24/20
f 20/51/20 31/51/31 19/51/19
f 31/51/31 18/51/18 19/51/19
f 31/51/31 21/23/21 32/52/32
f 32/52/32 17/43/17 31/51/31
