# Blender 4.3.2
# www.blender.org
mtllib Tree Trunk 1.mtl
o Tree_Trunk
v -8.400000 0.000000 0.400000
v -8.400000 0.800000 0.400000
v -8.400000 0.000000 -0.400000
v -8.400000 0.800000 -0.400000
v -7.600000 0.000000 0.400000
v -7.600000 0.800000 0.400000
v -7.600000 0.000000 -0.400000
v -7.600000 0.800000 -0.400000
v -8.298163 2.135003 0.300425
v -8.298163 2.135003 -0.300425
v -7.701836 2.208584 -0.300425
v -7.701836 2.208584 0.300425
v -8.421545 3.796635 0.228116
v -8.421545 3.796635 -0.228116
v -7.970759 3.726346 -0.228116
v -7.970759 3.726346 0.228116
v -7.989939 6.026727 0.145237
v -7.989939 6.026727 -0.145237
v -7.702933 5.981976 -0.145237
v -7.702933 5.981976 0.145237
v -7.898564 7.850867 0.059235
v -7.898564 7.850867 -0.059235
v -7.780379 7.859530 -0.059205
v -7.780379 7.859530 0.059205
v -7.779828 8.819535 0.028710
vn -0.5774 -0.5774 0.5774
vn -0.7070 0.0512 0.7054
vn -0.5774 -0.5774 -0.5774
vn -0.7070 0.0512 -0.7054
vn 0.5774 -0.5774 0.5774
vn 0.7058 0.0500 0.7067
vn 0.5774 -0.5774 -0.5774
vn 0.7058 0.0500 -0.7067
vn -0.6937 0.0458 0.7188
vn -0.6937 0.0458 -0.7188
vn 0.7124 0.1281 -0.6900
vn 0.7124 0.1281 0.6900
vn -0.7325 0.0680 0.6774
vn -0.7325 0.0680 -0.6774
vn 0.6723 0.0523 -0.7384
vn 0.6723 0.0523 0.7384
vn -0.6805 0.1142 0.7238
vn -0.6805 0.1142 -0.7238
vn 0.7248 -0.0011 -0.6890
vn 0.7248 -0.0011 0.6890
vn -0.7125 0.0886 0.6960
vn -0.7059 0.1064 -0.7003
vn 0.6961 0.0647 -0.7150
vn 0.7038 0.0422 0.7091
vn 0.0611 0.9977 0.0296
vt 0.375000 0.000000
vt 0.625000 0.000000
vt 0.625000 0.250000
vt 0.375000 0.250000
vt 0.625000 0.500000
vt 0.375000 0.500000
vt 0.625000 0.750000
vt 0.375000 0.750000
vt 0.625000 1.000000
vt 0.375000 1.000000
vt 0.125000 0.500000
vt 0.125000 0.750000
vt 0.625000 0.250000
vt 0.625000 0.500000
vt 0.625000 0.000000
vt 0.625000 0.250000
vt 0.625000 0.750000
vt 0.625000 0.500000
vt 0.625000 0.750000
vt 0.625000 0.250000
vt 0.625000 0.500000
vt 0.625000 0.709172
s 1
g Tree_Trunk_Wood
usemtl Wood
f 1/1/1 2/2/2 4/3/4 3/4/3
f 3/4/3 4/3/4 8/5/8 7/6/7
f 7/6/7 8/5/8 6/7/6 5/8/5
f 5/8/5 6/7/6 2/9/2 1/10/1
f 3/11/3 7/6/7 5/8/5 1/12/1
f 8/5/8 4/3/4 10/13/10 11/5/11
f 12/7/12 11/5/11 15/14/15 16/7/16
f 6/7/6 8/5/8 11/5/11 12/7/12
f 4/3/4 2/2/2 9/2/9 10/13/10
f 2/9/2 6/7/6 12/7/12 9/9/9
f 14/3/14 13/15/13 17/2/17 18/16/18
f 10/13/10 9/2/9 13/15/13 14/3/14
f 9/9/9 12/7/12 16/7/16 13/9/13
f 11/5/11 10/13/10 14/3/14 15/14/15
f 17/9/17 20/17/20 24/7/24 21/9/21
f 13/9/13 16/7/16 20/17/20 17/9/17
f 15/14/15 14/3/14 18/16/18 19/18/19
f 16/7/16 15/14/15 19/18/19 20/17/20
f 21/9/21 24/7/24 25/19/25
f 19/18/19 18/16/18 22/20/22 23/21/23
f 20/17/20 19/18/19 23/21/23 24/7/24
f 18/16/18 17/2/17 21/2/21 22/20/22
f 23/21/23 22/20/22 25/22/25
f 24/7/24 23/21/23 25/19/25
f 22/20/22 21/2/21 25/22/25
