# Blender 4.3.2
# www.blender.org
mtllib Door.mtl
g Door_Cube.001
v -2.100000 0.000000 0.180000
v -2.100000 9.000000 0.180000
v -2.100000 0.000000 -0.180000
v -2.100000 9.000000 -0.180000
v 2.100000 0.000000 0.180000
v 2.100000 9.000000 0.180000
v 2.100000 0.000000 -0.180000
v 2.100000 9.000000 -0.180000
v -1.575763 0.583131 -0.180000
v -1.575763 8.416868 -0.180000
v 1.575763 8.416868 -0.180000
v 1.575763 0.583131 -0.180000
v 1.575763 0.583131 0.180000
v 1.575763 8.416868 0.180000
v -1.575763 8.416868 0.180000
v -1.575763 0.583131 0.180000
v -1.575763 8.416868 -0.128548
v -1.575763 0.583131 -0.128548
v 1.575764 0.583131 -0.128548
v 1.575764 8.416868 -0.128548
v 1.575764 8.416868 0.128548
v 1.575764 0.583131 0.128548
v -1.575763 0.583131 0.128548
v -1.575763 8.416868 0.128548
vn -1.0000 -0.0000 -0.0000
vn 1.0000 -0.0000 -0.0000
vn -0.0000 -1.0000 -0.0000
vn -0.0000 1.0000 -0.0000
vn -0.0000 -0.0000 -1.0000
vn -0.0000 -0.0000 1.0000
vt 0.375000 0.000000
vt 0.625000 0.000000
vt 0.625000 0.250000
vt 0.375000 0.250000
vt 0.391198 0.822891
vt 0.608802 0.822891
vt 0.375000 0.500000
vt 0.625000 0.500000
vt 0.625000 0.750000
vt 0.375000 0.750000
vt 0.608802 0.927109
vt 0.125000 0.500000
vt 0.125000 0.750000
vt 0.875000 0.500000
vt 0.875000 0.750000
vt 0.608802 0.322891
vt 0.391198 0.322891
vt 0.608802 0.427109
vt 0.391198 0.427109
vt 0.625000 1.000000
vt 0.375000 1.000000
vt 0.391198 0.927109
s 0
f 1/1/1 2/2/1 4/3/1 3/4/1
f 13/5/1 14/6/1 21/6/1 22/5/1
f 7/7/2 8/8/2 6/9/2 5/10/2
f 14/6/3 15/11/3 24/11/3 21/6/3
f 3/12/3 7/7/3 5/10/3 1/13/3
f 8/8/4 4/14/4 2/15/4 6/9/4
f 3/4/5 4/3/5 10/16/5 9/17/5
f 4/3/5 8/8/5 11/18/5 10/16/5
f 8/8/5 7/7/5 12/19/5 11/18/5
f 7/7/5 3/4/5 9/17/5 12/19/5
f 5/10/6 6/9/6 14/6/6 13/5/6
f 6/9/6 2/20/6 15/11/6 14/6/6
f 2/20/6 1/21/6 16/22/6 15/11/6
f 1/21/6 5/10/6 13/5/6 16/22/6
f 18/17/5 17/16/5 20/18/5 19/19/5
f 22/5/6 21/6/6 24/11/6 23/22/6
f 10/16/3 11/18/3 20/18/3 17/16/3
f 15/11/2 16/22/2 23/22/2 24/11/2
f 9/17/2 10/16/2 17/16/2 18/17/2
f 16/22/4 13/5/4 22/5/4 23/22/4
f 11/18/1 12/19/1 19/19/1 20/18/1
f 12/19/4 9/17/4 18/17/4 19/19/4
g Door_Frame_Cube.002
v -2.100000 0.000000 0.300000
v -2.100000 9.000000 0.300000
v -2.100000 0.000000 -0.300000
v -2.100000 9.000000 -0.300000
v 2.100000 0.000000 0.300000
v 2.100000 9.000000 0.300000
v 2.100000 0.000000 -0.300000
v 2.100000 9.000000 -0.300000
v -2.730000 -0.001014 -0.300000
v -2.730000 -0.001014 0.300000
v -2.730000 9.647502 0.300000
v -2.730000 9.647502 -0.300000
v 2.730000 9.647502 -0.300000
v 2.730000 -0.001014 -0.300000
v 2.730000 -0.001014 0.300000
v 2.730000 9.647502 0.300000
vn -0.0000 -0.0000 1.0000
vn -1.0000 -0.0000 -0.0000
vn 1.0000 -0.0000 -0.0000
vn -0.0000 1.0000 -0.0000
vn -0.0000 -0.0000 -1.0000
vn 0.0016 -1.0000 -0.0000
vn -0.0016 -1.0000 -0.0000
vn -0.0000 -1.0000 -0.0000
vt 0.625000 0.750000
vt 0.375000 0.750000
vt 0.625000 1.000000
vt 0.375000 0.000000
vt 0.625000 0.000000
vt 0.625000 0.250000
vt 0.375000 0.250000
vt 0.375000 0.500000
vt 0.625000 0.500000
vt 0.875000 0.500000
vt 0.875000 0.750000
vt 0.375000 1.000000
s 0
f 30/23/7 29/24/7 39/24/7 40/23/7
f 26/25/7 30/23/7 40/23/7 35/25/7
f 34/26/8 35/27/8 36/28/8 33/29/8
f 38/30/9 37/31/9 40/23/9 39/24/9
f 37/31/10 36/32/10 35/33/10 40/23/10
f 32/31/11 28/28/11 36/28/11 37/31/11
f 28/28/11 27/29/11 33/29/11 36/28/11
f 25/34/7 26/25/7 35/25/7 34/34/7
f 31/30/11 32/31/11 37/31/11 38/30/11
f 33/29/12 27/29/12 25/34/12 34/34/12
f 38/30/13 39/24/13 29/24/13 31/30/13
f 31/30/8 29/24/8 30/23/8 32/31/8
f 28/28/14 32/31/14 30/23/14 26/25/14
f 25/34/9 27/29/9 28/28/9 26/25/9
