# Blender 4.3.2
# www.blender.org
mtllib Landmass 2.mtl
o LandMass_2
v 5.982674 -0.157059 0.152811
v 8.099167 0.694982 1.270205
v 5.275494 1.027994 2.229834
v 3.651782 0.824104 -0.009221
v 5.275494 1.027994 -2.229834
v 7.901577 0.893235 -1.380432
v 6.680717 1.995207 1.992349
v 4.321629 2.075628 1.220371
v 4.232686 1.932319 -1.256726
v 6.641700 2.078789 -1.974560
v 8.083985 2.052515 0.000369
v 5.960872 2.335027 -0.026001
v 5.636579 -0.010351 1.105166
v 6.870622 -0.066029 0.718347
v 6.743514 0.494813 1.931498
v 8.410511 0.453442 -0.000000
v 6.939891 -0.018736 -0.682690
v 4.705583 0.128445 0.000208
v 3.999171 0.521482 1.260874
v 5.641083 -0.019015 -1.104751
v 3.999171 0.521482 -1.260874
v 6.662892 0.426218 -2.040138
v 8.765173 1.286167 0.968856
v 8.992142 1.513770 -1.113705
v 6.003697 1.748218 2.700639
v 7.832170 1.638278 2.540012
v 3.504060 1.708283 1.000578
v 4.516359 1.653568 2.406685
v 4.139300 1.701180 -2.279333
v 3.342551 1.666553 -1.059356
v 7.903213 1.816396 -2.619542
v 6.077784 1.456489 -2.937208
v 7.597792 2.097331 1.160178
v 5.382668 2.297313 1.898679
v 3.979261 2.209378 0.002506
v 5.408315 2.410891 -1.864424
v 7.827484 2.219953 -1.160631
v 6.367401 2.295944 1.102678
v 7.250962 2.099679 -0.000673
v 5.012070 2.191512 0.717538
v 4.994166 2.169603 -0.720853
v 6.377908 2.194185 -1.160781
vn -0.0551 -0.9984 0.0111
vn 0.5321 -0.7290 0.4305
vn -0.1674 -0.6095 0.7749
vn -0.8120 -0.5830 0.0267
vn -0.2658 -0.6731 -0.6902
vn 0.5055 -0.7346 -0.4526
vn 0.1460 0.9290 0.3402
vn -0.3273 0.9191 0.2193
vn -0.3210 0.9326 -0.1649
vn 0.0720 0.9388 -0.3368
vn 0.3743 0.9214 0.1050
vn 0.0049 0.9993 -0.0361
vn -0.1309 -0.9281 0.3487
vn 0.2104 -0.9556 0.2062
vn 0.1343 -0.7564 0.6402
vn 0.6065 -0.7939 -0.0426
vn 0.2555 -0.9435 -0.2111
vn -0.3550 -0.9349 0.0009
vn -0.5842 -0.7158 0.3825
vn -0.1298 -0.9393 -0.3176
vn -0.5477 -0.7521 -0.3667
vn 0.1649 -0.8020 -0.5740
vn 0.9377 0.0960 0.3340
vn 0.9472 0.1222 -0.2966
vn 0.0128 0.3304 0.9437
vn 0.5163 0.3115 0.7977
vn -0.8681 0.3730 0.3275
vn -0.5141 0.2278 0.8269
vn -0.5953 0.3144 -0.7395
vn -0.8862 0.3676 -0.2820
vn 0.4926 0.3793 -0.7833
vn -0.0580 0.0294 -0.9979
vn 0.3117 0.9384 0.1489
vn -0.0982 0.9509 0.2935
vn -0.3225 0.9465 -0.0138
vn -0.0730 0.9694 -0.2345
vn 0.2369 0.9689 -0.0721
vn 0.0970 0.9915 0.0867
vn 0.0954 0.9953 0.0175
vn -0.0942 0.9955 0.0143
vn -0.1225 0.9922 -0.0245
vn 0.0742 0.9970 -0.0229
vt 0.181819 0.000000
vt 0.227273 0.078731
vt 0.136365 0.078731
vt 0.272728 0.157461
vt 0.318182 0.078731
vt 0.363637 0.157461
vt 0.909091 0.000000
vt 0.954545 0.078731
vt 0.863636 0.078731
vt 0.727273 0.000000
vt 0.772727 0.078731
vt 0.681818 0.078731
vt 0.545455 0.000000
vt 0.590909 0.078731
vt 0.500000 0.078731
vt 0.318182 0.236191
vt 0.090910 0.157461
vt 0.181819 0.157461
vt 0.136365 0.236191
vt 0.818182 0.157461
vt 0.909091 0.157461
vt 0.863636 0.236191
vt 0.636364 0.157461
vt 0.727273 0.157461
vt 0.681818 0.236191
vt 0.454546 0.157461
vt 0.545455 0.157461
vt 0.500000 0.236191
vt 0.227273 0.236191
vt 0.045455 0.236191
vt 0.772727 0.236191
vt 0.590909 0.236191
vt 0.409092 0.236191
vt 0.181819 0.314921
vt 0.272728 0.314921
vt 0.227273 0.393651
vt 0.000000 0.314921
vt 0.090910 0.314921
vt 0.045455 0.393651
vt 0.727273 0.314921
vt 0.818182 0.314921
vt 0.772727 0.393651
vt 0.545455 0.314921
vt 0.636364 0.314921
vt 0.590909 0.393651
vt 0.363637 0.314921
vt 0.454546 0.314921
vt 0.409092 0.393651
vt 0.500000 0.393651
vt 0.454546 0.472382
vt 0.681818 0.393651
vt 0.636364 0.472382
vt 0.863636 0.393651
vt 0.818182 0.472382
vt 0.909091 0.314921
vt 0.136365 0.393651
vt 0.090910 0.472382
vt 0.318182 0.393651
vt 0.272728 0.472382
vt 0.954545 0.236191
vt 1.000000 0.157461
vt 0.409092 0.078731
vt 0.363637 0.000000
s 1
g LandMass_2_Grass
usemtl Grass
f 7/34/7 33/35/33 38/36/38
f 8/37/8 34/38/34 40/39/40
f 9/40/9 35/41/35 41/42/41
f 10/43/10 36/44/36 42/45/42
f 11/46/11 37/47/37 39/48/39
f 39/48/39 42/49/42 12/50/12
f 39/48/39 37/47/37 42/49/42
f 37/47/37 10/43/10 42/49/42
f 42/45/42 41/51/41 12/52/12
f 42/45/42 36/44/36 41/51/41
f 36/44/36 9/40/9 41/51/41
f 41/42/41 40/53/40 12/54/12
f 41/42/41 35/41/35 40/53/40
f 35/41/35 8/55/8 40/53/40
f 40/39/40 38/56/38 12/57/12
f 40/39/40 34/38/34 38/56/38
f 34/38/34 7/34/7 38/56/38
f 38/36/38 39/58/39 12/59/12
f 38/36/38 33/35/33 39/58/39
f 33/35/33 11/46/11 39/58/39
f 24/33/24 37/47/37 11/46/11
f 24/33/24 31/28/31 37/47/37
f 31/28/31 10/43/10 37/47/37
f 32/32/32 36/44/36 10/43/10
f 32/32/32 29/25/29 36/44/36
f 29/25/29 9/40/9 36/44/36
f 30/31/30 35/41/35 9/40/9
f 30/31/30 27/22/27 35/41/35
f 27/22/27 8/55/8 35/41/35
f 28/30/28 34/38/34 8/37/8
f 28/30/28 25/19/25 34/38/34
f 25/19/25 7/34/7 34/38/34
f 26/29/26 33/35/33 7/34/7
f 26/29/26 23/16/23 33/35/33
f 23/16/23 11/46/11 33/35/33
f 31/28/31 32/32/32 10/43/10
f 29/25/29 30/31/30 9/40/9
f 27/22/27 28/60/28 8/55/8
f 25/19/25 26/29/26 7/34/7
f 23/16/23 24/33/24 11/46/11
g LandMass_2_Dirt
usemtl Dirt
f 1/1/1 14/2/14 13/3/13
f 2/4/2 14/5/14 16/6/16
f 1/7/1 13/8/13 18/9/18
f 1/10/1 18/11/18 20/12/20
f 1/13/1 20/14/20 17/15/17
f 2/4/2 16/6/16 23/16/23
f 3/17/3 15/18/15 25/19/25
f 4/20/4 19/21/19 27/22/27
f 5/23/5 21/24/21 29/25/29
f 6/26/6 22/27/22 31/28/31
f 2/4/2 23/16/23 26/29/26
f 3/17/3 25/19/25 28/30/28
f 4/20/4 27/22/27 30/31/30
f 5/23/5 29/25/29 32/32/32
f 6/26/6 31/28/31 24/33/24
f 31/28/31 22/27/22 32/32/32
f 22/27/22 5/23/5 32/32/32
f 29/25/29 21/24/21 30/31/30
f 21/24/21 4/20/4 30/31/30
f 27/22/27 19/21/19 28/60/28
f 19/21/19 3/61/3 28/60/28
f 25/19/25 15/18/15 26/29/26
f 15/18/15 2/4/2 26/29/26
f 23/16/23 16/6/16 24/33/24
f 16/6/16 6/26/6 24/33/24
f 17/15/17 22/27/22 6/26/6
f 17/15/17 20/14/20 22/27/22
f 20/14/20 5/23/5 22/27/22
f 20/12/20 21/24/21 5/23/5
f 20/12/20 18/11/18 21/24/21
f 18/11/18 4/20/4 21/24/21
f 18/9/18 19/21/19 4/20/4
f 18/9/18 13/8/13 19/21/19
f 13/8/13 3/61/3 19/21/19
f 16/6/16 17/62/17 6/26/6
f 16/6/16 14/5/14 17/62/17
f 14/5/14 1/63/1 17/62/17
f 13/3/13 15/18/15 3/17/3
f 13/3/13 14/2/14 15/18/15
f 14/2/14 2/4/2 15/18/15
