# Blender 4.3.2
# www.blender.org
mtllib Landmass 1.mtl
o LandMass
v -0.000064 -0.417774 0.000035
v 1.459086 0.891898 1.060076
v -0.557312 1.027994 1.715257
v -1.806321 0.824104 -0.007093
v -0.557312 1.027994 -1.715257
v 1.459086 0.891898 -1.060076
v 0.493576 2.076724 1.518927
v -1.292154 2.077002 0.938747
v -1.354910 2.137873 -0.957494
v 0.493616 2.076452 -1.518892
v 1.602273 2.062749 -0.003987
v -0.030078 2.334836 -0.019925
v -0.276168 -0.019132 0.849967
v 0.676305 -0.085432 0.551088
v 0.571934 0.494813 1.485767
v 1.854239 0.453442 -0.000000
v 0.723026 -0.019130 -0.525304
v -0.893716 -0.019104 0.000000
v -1.539099 0.521482 0.969903
v -0.276168 -0.019132 -0.849967
v -1.539099 0.521482 -0.969903
v 0.509917 0.426218 -1.569336
v 2.123847 1.448954 0.769660
v 2.123847 1.448954 -0.769661
v 0.090553 1.571980 2.511776
v 1.316352 1.808737 1.951210
v -1.919954 1.708283 0.769675
v -1.464007 1.816396 2.015032
v -1.379316 1.701338 -1.648279
v -2.044192 1.681155 -0.814889
v 1.464010 1.816396 -2.015033
v 0.059834 1.524534 -2.395481
v 1.229024 2.096982 0.892654
v -0.469381 2.328841 1.444579
v -1.554414 2.209432 0.001928
v -0.455143 2.046834 -1.434172
v 1.405756 2.219968 -0.892799
v 0.289921 2.191333 0.892589
v 0.959505 2.135476 -0.015458
v -0.759905 2.192308 0.551585
v -0.773719 2.206348 -0.554502
v 0.290698 2.189435 -0.892908
vn -0.0152 -0.9998 -0.0146
vn 0.6008 -0.5803 0.5498
vn -0.2430 -0.6544 0.7160
vn -0.8821 -0.4702 0.0275
vn -0.3400 -0.5629 -0.7533
vn 0.6124 -0.6110 -0.5016
vn 0.1506 0.9384 0.3109
vn -0.3768 0.9167 0.1329
vn -0.3091 0.9034 -0.2972
vn -0.0229 0.9331 -0.3589
vn 0.4947 0.8663 0.0690
vn 0.0203 0.9998 -0.0005
vn -0.1641 -0.8393 0.5183
vn 0.3596 -0.8742 0.3262
vn 0.2402 -0.7026 0.6698
vn 0.7378 -0.6750 -0.0043
vn 0.3826 -0.8692 -0.3133
vn -0.4758 -0.8795 -0.0000
vn -0.6530 -0.6377 0.4086
vn -0.1645 -0.8537 -0.4940
vn -0.6345 -0.6317 -0.4453
vn 0.1951 -0.7283 -0.6569
vn 0.9296 0.1214 0.3481
vn 0.9545 0.0600 -0.2921
vn 0.0445 0.0598 0.9972
vn 0.5884 0.3483 0.7297
vn -0.9246 0.3007 0.2338
vn -0.6208 0.2656 0.7376
vn -0.5475 0.2753 -0.7902
vn -0.9246 0.2383 -0.2971
vn 0.5686 0.3029 -0.7648
vn -0.1073 0.1147 -0.9876
vn 0.3304 0.9332 0.1415
vn -0.0425 0.9728 0.2276
vn -0.4176 0.9078 0.0378
vn -0.1011 0.9166 -0.3869
vn 0.3681 0.9236 -0.1069
vn 0.1162 0.9911 0.0648
vn 0.1106 0.9929 0.0449
vn -0.0961 0.9950 0.0254
vn -0.0482 0.9933 -0.1048
vn 0.0002 0.9910 -0.1339
vt 0.181819 0.000000
vt 0.227273 0.078731
vt 0.136365 0.078731
vt 0.272728 0.157461
vt 0.318182 0.078731
vt 0.363637 0.157461
vt 0.909091 0.000000
vt 0.954545 0.078731
vt 0.863636 0.078731
vt 0.727273 0.000000
vt 0.772727 0.078731
vt 0.681818 0.078731
vt 0.545455 0.000000
vt 0.590909 0.078731
vt 0.500000 0.078731
vt 0.318182 0.236191
vt 0.090910 0.157461
vt 0.181819 0.157461
vt 0.136365 0.236191
vt 0.818182 0.157461
vt 0.909091 0.157461
vt 0.863636 0.236191
vt 0.636364 0.157461
vt 0.727273 0.157461
vt 0.681818 0.236191
vt 0.454546 0.157461
vt 0.545455 0.157461
vt 0.500000 0.236191
vt 0.227273 0.236191
vt 0.045455 0.236191
vt 0.772727 0.236191
vt 0.590909 0.236191
vt 0.409092 0.236191
vt 0.181819 0.314921
vt 0.272728 0.314921
vt 0.227273 0.393651
vt 0.000000 0.314921
vt 0.090910 0.314921
vt 0.045455 0.393651
vt 0.727273 0.314921
vt 0.818182 0.314921
vt 0.772727 0.393651
vt 0.545455 0.314921
vt 0.636364 0.314921
vt 0.590909 0.393651
vt 0.363637 0.314921
vt 0.454546 0.314921
vt 0.409092 0.393651
vt 0.500000 0.393651
vt 0.454546 0.472382
vt 0.681818 0.393651
vt 0.636364 0.472382
vt 0.863636 0.393651
vt 0.818182 0.472382
vt 0.909091 0.314921
vt 0.136365 0.393651
vt 0.090910 0.472382
vt 0.318182 0.393651
vt 0.272728 0.472382
vt 0.954545 0.236191
vt 1.000000 0.157461
vt 0.409092 0.078731
vt 0.363637 0.000000
s 1
g LandMass_Grass
usemtl Grass
f 7/34/7 33/35/33 38/36/38
f 8/37/8 34/38/34 40/39/40
f 9/40/9 35/41/35 41/42/41
f 10/43/10 36/44/36 42/45/42
f 11/46/11 37/47/37 39/48/39
f 39/48/39 42/49/42 12/50/12
f 39/48/39 37/47/37 42/49/42
f 37/47/37 10/43/10 42/49/42
f 42/45/42 41/51/41 12/52/12
f 42/45/42 36/44/36 41/51/41
f 36/44/36 9/40/9 41/51/41
f 41/42/41 40/53/40 12/54/12
f 41/42/41 35/41/35 40/53/40
f 35/41/35 8/55/8 40/53/40
f 40/39/40 38/56/38 12/57/12
f 40/39/40 34/38/34 38/56/38
f 34/38/34 7/34/7 38/56/38
f 38/36/38 39/58/39 12/59/12
f 38/36/38 33/35/33 39/58/39
f 33/35/33 11/46/11 39/58/39
f 24/33/24 37/47/37 11/46/11
f 24/33/24 31/28/31 37/47/37
f 31/28/31 10/43/10 37/47/37
f 32/32/32 36/44/36 10/43/10
f 32/32/32 29/25/29 36/44/36
f 29/25/29 9/40/9 36/44/36
f 30/31/30 35/41/35 9/40/9
f 30/31/30 27/22/27 35/41/35
f 27/22/27 8/55/8 35/41/35
f 28/30/28 34/38/34 8/37/8
f 28/30/28 25/19/25 34/38/34
f 25/19/25 7/34/7 34/38/34
f 26/29/26 33/35/33 7/34/7
f 26/29/26 23/16/23 33/35/33
f 23/16/23 11/46/11 33/35/33
f 31/28/31 32/32/32 10/43/10
f 29/25/29 30/31/30 9/40/9
f 27/22/27 28/60/28 8/55/8
f 25/19/25 26/29/26 7/34/7
f 23/16/23 24/33/24 11/46/11
g LandMass_Dirt
usemtl Dirt
f 1/1/1 14/2/14 13/3/13
f 2/4/2 14/5/14 16/6/16
f 1/7/1 13/8/13 18/9/18
f 1/10/1 18/11/18 20/12/20
f 1/13/1 20/14/20 17/15/17
f 2/4/2 16/6/16 23/16/23
f 3/17/3 15/18/15 25/19/25
f 4/20/4 19/21/19 27/22/27
f 5/23/5 21/24/21 29/25/29
f 6/26/6 22/27/22 31/28/31
f 2/4/2 23/16/23 26/29/26
f 3/17/3 25/19/25 28/30/28
f 4/20/4 27/22/27 30/31/30
f 5/23/5 29/25/29 32/32/32
f 6/26/6 31/28/31 24/33/24
f 31/28/31 22/27/22 32/32/32
f 22/27/22 5/23/5 32/32/32
f 29/25/29 21/24/21 30/31/30
f 21/24/21 4/20/4 30/31/30
f 27/22/27 19/21/19 28/60/28
f 19/21/19 3/61/3 28/60/28
f 25/19/25 15/18/15 26/29/26
f 15/18/15 2/4/2 26/29/26
f 23/16/23 16/6/16 24/33/24
f 16/6/16 6/26/6 24/33/24
f 17/15/17 22/27/22 6/26/6
f 17/15/17 20/14/20 22/27/22
f 20/14/20 5/23/5 22/27/22
f 20/12/20 21/24/21 5/23/5
f 20/12/20 18/11/18 21/24/21
f 18/11/18 4/20/4 21/24/21
f 18/9/18 19/21/19 4/20/4
f 18/9/18 13/8/13 19/21/19
f 13/8/13 3/61/3 19/21/19
f 16/6/16 17/62/17 6/26/6
f 16/6/16 14/5/14 17/62/17
f 14/5/14 1/63/1 17/62/17
f 13/3/13 15/18/15 3/17/3
f 13/3/13 14/2/14 15/18/15
f 14/2/14 2/4/2 15/18/15
