# Blender 4.3.2
# www.blender.org
mtllib Marker.mtl
o Marker
v 12.000000 0.000000 -1.000000
v 12.000000 4.000000 -1.000000
v 12.707107 0.000000 -0.707107
v 12.707107 4.000000 -0.707107
v 13.000000 0.000000 0.000000
v 13.000000 4.000000 0.000000
v 12.707107 0.000000 0.707107
v 12.707107 4.000000 0.707107
v 12.000000 0.000000 1.000000
v 12.000000 4.000000 1.000000
v 11.292893 0.000000 0.707107
v 11.292893 4.000000 0.707107
v 11.000000 0.000000 0.000000
v 11.000000 4.000000 0.000000
v 11.292893 0.000000 -0.707107
v 11.292893 4.000000 -0.707107
v 12.000000 7.000000 0.000000
v 10.000000 4.050000 0.000000
v 10.585787 4.050000 1.414214
v 12.000000 4.050000 2.000000
v 13.414213 4.050000 1.414214
v 10.585787 4.050000 -1.414214
v 14.000000 4.050000 0.000000
v 13.414213 4.050000 -1.414214
v 12.000000 4.050000 -2.000000
vn -0.0000 -0.6303 -0.7764
vn -0.0000 -0.7845 -0.6201
vn 0.5490 -0.6303 -0.5490
vn 0.4385 -0.7845 -0.4385
vn 0.7764 -0.6303 -0.0000
vn 0.6201 -0.7845 -0.0000
vn 0.5490 -0.6303 0.5490
vn 0.4385 -0.7845 0.4385
vn -0.0000 -0.6302 0.7764
vn -0.0000 -0.7845 0.6201
vn -0.5490 -0.6303 0.5490
vn -0.4385 -0.7845 0.4385
vn -0.7764 -0.6303 -0.0000
vn -0.6201 -0.7845 -0.0000
vn -0.5490 -0.6303 -0.5490
vn -0.4385 -0.7845 -0.4385
vn -0.0000 1.0000 -0.0000
vn -0.9255 -0.3787 -0.0000
vn -0.6545 -0.3787 0.6545
vn -0.0000 -0.3787 0.9255
vn 0.6545 -0.3787 0.6545
vn -0.6545 -0.3787 -0.6545
vn 0.9255 -0.3787 -0.0000
vn 0.6545 -0.3787 -0.6545
vn -0.0000 -0.3787 -0.9255
vt 1.000000 0.500000
vt 1.000000 1.000000
vt 0.875000 1.000000
vt 0.875000 0.500000
vt 0.750000 1.000000
vt 0.750000 0.500000
vt 0.625000 1.000000
vt 0.625000 0.500000
vt 0.500000 1.000000
vt 0.500000 0.500000
vt 0.375000 1.000000
vt 0.375000 0.500000
vt 0.250000 1.000000
vt 0.250000 0.500000
vt 0.125000 1.000000
vt 0.125000 0.500000
vt 0.000000 1.000000
vt 0.000000 0.500000
vt 0.875000 1.000000
s 1
usemtl Marker
f 1/1/1 2/2/2 4/3/4 3/4/3
f 3/4/3 4/3/4 6/5/6 5/6/5
f 5/6/5 6/5/6 8/7/8 7/8/7
f 7/8/7 8/7/8 10/9/10 9/10/9
f 9/10/9 10/9/10 12/11/12 11/12/11
f 11/12/11 12/11/12 14/13/14 13/14/13
f 20/9/20 21/7/21 17/9/17
f 13/14/13 14/13/14 16/15/16 15/16/15
f 15/16/15 16/15/16 2/17/2 1/18/1
f 18/13/18 19/11/19 17/13/17
f 22/15/22 18/13/18 17/15/17
f 23/5/23 24/19/24 17/5/17
f 19/11/19 20/9/20 17/11/17
f 25/17/25 22/15/22 17/17/17
f 24/19/24 25/2/25 17/3/17
f 21/7/21 23/5/23 17/7/17
f 8/7/8 6/5/6 23/5/23 21/7/21
f 4/3/4 2/2/2 25/2/25 24/19/24
f 2/17/2 16/15/16 22/15/22 25/17/25
f 12/11/12 10/9/10 20/9/20 19/11/19
f 6/5/6 4/3/4 24/19/24 23/5/23
f 16/15/16 14/13/14 18/13/18 22/15/22
f 14/13/14 12/11/12 19/11/19 18/13/18
f 10/9/10 8/7/8 21/7/21 20/9/20
f 13/14/13 15/16/15 11/12/11
f 15/16/15 1/18/1 11/12/11
f 11/12/11 1/18/1 9/10/9
f 9/10/9 1/18/1 7/8/7
f 1/18/1 3/4/3 7/8/7
f 5/6/5 7/8/7 3/4/3
