# Blender 4.3.2
# www.blender.org
mtllib Plank.mtl
o Plank
v 14.405716 0.064616 0.560000
v 14.405716 0.264616 0.560000
v 14.405716 0.064616 -0.560000
v 14.405716 0.264616 -0.560000
v 20.205715 0.064616 0.560000
v 20.205715 0.264616 0.560000
v 20.205715 0.064616 -0.560000
v 20.205715 0.264616 -0.560000
v 14.405716 0.064616 -0.616000
v 14.405716 0.264616 -0.616000
v 14.405716 0.064616 -1.736000
v 14.405716 0.264616 -1.736000
v 20.205715 0.064616 -0.616000
v 20.205715 0.264616 -0.616000
v 20.205715 0.064616 -1.736000
v 20.205715 0.264616 -1.736000
vn -0.0339 -0.9839 0.1757
vn -0.0339 0.9839 0.1757
vn -0.0339 -0.9839 -0.1757
vn -0.0339 0.9839 -0.1757
vn 0.0339 -0.9839 0.1757
vn 0.0339 0.9839 0.1757
vn 0.0339 -0.9839 -0.1757
vn 0.0339 0.9839 -0.1757
vt 0.375000 0.000000
vt 0.625000 0.000000
vt 0.625000 0.250000
vt 0.375000 0.250000
vt 0.625000 0.500000
vt 0.375000 0.500000
vt 0.625000 0.750000
vt 0.375000 0.750000
vt 0.625000 1.000000
vt 0.375000 1.000000
vt 0.125000 0.500000
vt 0.125000 0.750000
vt 0.875000 0.500000
vt 0.875000 0.750000
s 1
usemtl Wood
f 1/1/1 2/2/2 4/3/4 3/4/3
f 3/4/3 4/3/4 8/5/8 7/6/7
f 7/6/7 8/5/8 6/7/6 5/8/5
f 5/8/5 6/7/6 2/9/2 1/10/1
f 3/11/3 7/6/7 5/8/5 1/12/1
f 8/5/8 4/13/4 2/14/2 6/7/6
f 9/1/1 10/2/2 12/3/4 11/4/3
f 11/4/3 12/3/4 16/5/8 15/6/7
f 15/6/7 16/5/8 14/7/6 13/8/5
f 13/8/5 14/7/6 10/9/2 9/10/1
f 11/11/3 15/6/7 13/8/5 9/12/1
f 16/5/8 12/13/4 10/14/2 14/7/6
