# Blender 4.3.2
# www.blender.org
mtllib Tree Trunk 2.mtl
o Tree_Trunk_2
v -11.394045 -0.002950 0.400000
v -11.418306 0.713383 0.400000
v -11.394045 -0.002950 -0.400000
v -11.418306 0.713383 -0.400000
v -10.585342 0.008902 0.400000
v -10.852968 0.771847 0.400000
v -10.585342 0.008902 -0.400000
v -10.852968 0.771847 -0.400000
v -12.361249 1.779160 0.300425
v -12.361249 1.779160 -0.300425
v -11.999530 1.965441 -0.300425
v -11.999531 1.965441 0.300425
v -12.863564 3.366488 0.228116
v -12.863564 3.366489 -0.228116
v -12.529509 3.433493 -0.228116
v -12.529604 3.433443 0.228116
v -13.571965 3.932345 0.145237
v -13.571965 3.932345 -0.145237
v -13.321033 3.992274 -0.145237
v -13.321033 3.992274 0.145237
v -13.740139 4.535697 0.059235
v -13.740139 4.535697 -0.059236
v -13.621954 4.544360 -0.059205
v -13.621954 4.544360 0.059204
v -13.341990 5.793259 0.028710
v -12.613080 3.084718 -0.249809
v -12.613088 3.084707 0.249809
v -12.862123 2.967464 0.249809
v -12.862114 2.967465 -0.249809
v -11.603998 3.827697 -0.124136
v -11.604265 3.827586 0.124136
v -11.419402 3.643524 -0.135941
v -11.419565 3.643455 0.135941
v -11.323029 4.427566 -0.047696
v -11.324474 4.425025 0.047696
v -11.232270 4.431183 -0.052232
v -11.233846 4.428423 0.052232
v -11.252048 4.914798 0.020001
vn -0.5627 -0.5907 0.5784
vn -0.5715 -0.1866 0.7991
vn -0.5627 -0.5907 -0.5784
vn -0.5715 -0.1866 -0.7991
vn 0.6781 -0.4733 0.5622
vn 0.6281 0.4009 0.6669
vn 0.6781 -0.4733 -0.5622
vn 0.6281 0.4009 -0.6669
vn -0.6431 -0.3670 0.6721
vn -0.6431 -0.3670 -0.6721
vn 0.5262 0.4395 -0.7280
vn 0.5262 0.4395 0.7280
vn -0.5419 -0.1641 0.8243
vn -0.5419 -0.1641 -0.8243
vn 0.0771 0.5704 -0.8178
vn 0.0771 0.5703 0.8178
vn -0.6576 -0.3602 0.6617
vn -0.6576 -0.3602 -0.6617
vn 0.4393 0.5124 -0.7378
vn 0.4393 0.5124 0.7379
vn -0.7765 0.0558 0.6276
vn -0.7726 0.0666 -0.6314
vn 0.5939 0.1829 -0.7835
vn 0.6020 0.1626 0.7818
vn 0.2602 0.9653 0.0221
vn 0.3917 -0.0599 -0.9181
vn 0.3917 -0.0599 0.9181
vn -0.7379 -0.1224 0.6637
vn -0.7379 -0.1224 -0.6637
vn -0.3675 0.5090 -0.7784
vn -0.3673 0.5096 0.7780
vn 0.6276 -0.4602 -0.6279
vn 0.6267 -0.4598 0.6291
vn -0.6317 0.2831 -0.7217
vn -0.6472 0.2654 0.7146
vn 0.7271 0.0115 -0.6865
vn 0.7280 -0.0216 0.6853
vn 0.0516 0.9978 0.0408
vt 0.375000 0.000000
vt 0.625000 0.000000
vt 0.625000 0.250000
vt 0.375000 0.250000
vt 0.625000 0.500000
vt 0.375000 0.500000
vt 0.625000 0.750000
vt 0.375000 0.750000
vt 0.625000 1.000000
vt 0.375000 1.000000
vt 0.125000 0.500000
vt 0.125000 0.750000
vt 0.625000 0.250000
vt 0.625000 0.500000
vt 0.625000 0.500000
vt 0.625000 0.500000
vt 0.625000 0.500000
vt 0.625000 0.500000
vt 0.625000 0.750000
vt 0.625000 0.000000
vt 0.625000 0.000000
vt 0.625000 0.250000
vt 0.625000 0.000000
vt 0.625000 1.000000
vt 0.625000 0.750000
vt 0.625000 0.750000
vt 0.625000 1.000000
vt 0.625000 0.500000
vt 0.625000 0.750000
vt 0.625000 0.250000
vt 0.625000 0.500000
vt 0.625000 0.000000
vt 0.625000 0.709172
vt 0.625000 0.750000
vt 0.625000 0.500000
vt 0.625000 0.733549
vt 0.625000 0.750000
s 1
g Tree_Trunk_2_Wood
usemtl Wood
f 1/1/1 2/2/2 4/3/4 3/4/3
f 3/4/3 4/3/4 8/5/8 7/6/7
f 7/6/7 8/5/8 6/7/6 5/8/5
f 5/8/5 6/7/6 2/9/2 1/10/1
f 3/11/3 7/6/7 5/8/5 1/12/1
f 8/5/8 4/3/4 10/13/10 11/14/11
f 26/15/26 15/16/15 30/17/30 32/18/32
f 6/7/6 8/5/8 11/14/11 12/19/12
f 4/3/4 2/2/2 9/2/9 10/13/10
f 2/9/2 6/7/6 12/19/12 9/9/9
f 14/3/14 13/20/13 17/21/17 18/3/18
f 29/22/29 28/23/28 13/20/13 14/3/14
f 28/9/28 27/19/27 16/19/16 13/9/13
f 26/15/26 29/22/29 14/3/14 15/16/15
f 17/24/17 20/25/20 24/26/24 21/27/21
f 13/9/13 16/19/16 20/25/20 17/24/17
f 15/16/15 14/3/14 18/3/18 19/28/19
f 16/19/16 15/16/15 19/28/19 20/25/20
f 21/27/21 24/26/24 25/29/25
f 19/28/19 18/3/18 22/30/22 23/31/23
f 20/25/20 19/28/19 23/31/23 24/26/24
f 18/3/18 17/21/17 21/32/21 22/30/22
f 23/31/23 22/30/22 25/33/25
f 24/26/24 23/31/23 25/29/25
f 22/30/22 21/32/21 25/33/25
f 11/14/11 10/13/10 29/22/29 26/15/26
f 9/9/9 12/19/12 27/19/27 28/9/28
f 10/13/10 9/2/9 28/23/28 29/22/29
f 12/19/12 11/14/11 26/15/26 27/19/27
f 33/19/33 32/18/32 36/5/36 37/34/37
f 15/16/15 16/19/16 31/19/31 30/17/30
f 27/19/27 26/15/26 32/18/32 33/19/33
f 16/19/16 27/19/27 33/19/33 31/19/31
f 36/5/36 34/35/34 38/36/38
f 32/18/32 30/17/30 34/35/34 36/5/36
f 31/19/31 33/19/33 37/34/37 35/37/35
f 30/17/30 31/19/31 35/37/35 34/35/34
f 35/37/35 37/34/37 38/36/38
f 34/35/34 35/37/35 38/36/38
f 37/34/37 36/5/36 38/7/38
